<mxfile host="app.diagrams.net" modified="2023-06-11T01:15:15.821Z" agent="Mozilla/5.0 (Windows NT 10.0; Win64; x64) AppleWebKit/537.36 (KHTML, like Gecko) Chrome/114.0.0.0 Safari/537.36" version="21.3.8" etag="uRgF9Vbz6IXU0wSYbsB8" type="github">
  <diagram name="ページ1" id="G-IlNG6C6N0usewLotBW">
    <mxGraphModel>
      <root>
        <mxCell id="0" />
        <mxCell id="1" parent="0" />
      </root>
    </mxGraphModel>
  </diagram>
</mxfile>
